Coordinates
version=1
nRows=17
nColumns=40
inDegrees=yes

Units are S.I. units (second, meters, Newtons, ...)
Angles are in degrees.

endheader
time	pelvis_tilt	pelvis_list	pelvis_rotation	pelvis_tx	pelvis_ty	pelvis_tz	hip_flexion_r	hip_adduction_r	hip_rotation_r	knee_angle_r	knee_angle_r_beta	ankle_angle_r	subtalar_angle_r	mtp_angle_r	hip_flexion_l	hip_adduction_l	hip_rotation_l	knee_angle_l	knee_angle_l_beta	ankle_angle_l	subtalar_angle_l	mtp_angle_l	lumbar_extension	lumbar_bending	lumbar_rotation	arm_flex_r	arm_add_r	arm_rot_r	elbow_flex_r	pro_sup_r	wrist_flex_r	wrist_dev_r	arm_flex_l	arm_add_l	arm_rot_l	elbow_flex_l	pro_sup_l	wrist_flex_l	wrist_dev_l
     55.64000000	     -1.46034758	     -4.65283937	      4.86671442	      1.17970938	      0.93117980	      0.48215095	     10.88596107	      1.68623259	    -15.10336446	     18.80112854	     18.80112854	     10.87246295	     -3.32348631	     -4.84983844	     28.49686775	    -12.97100340	      0.62768172	     63.05380268	     63.05380268	      8.38868426	    -18.77535074	     12.90217999	    -10.28137478	      6.39198195	      2.66020096	     17.13077316	    -20.55750509	     -5.26711846	     66.72005028	     44.97504548	      0.00000000	      0.00000000	      4.65832473	     -8.15652805	    -11.47124918	     34.53910944	     44.85381853	      0.00000000	      0.00000000
     55.65342857	     -1.51442216	     -4.55261970	      5.42621643	      1.17843882	      0.93158965	      0.48279338	     10.30136319	      1.73281887	    -15.33903364	     18.20325880	     18.20325880	     10.96455977	     -3.50231363	     -4.88813489	     29.50622731	    -12.83978372	      0.34376541	     60.81251370	     60.81251370	      8.83059271	    -18.87991356	     13.32129441	    -10.25540112	      6.18845511	      2.12677580	     18.91014313	    -20.27173970	     -5.30234691	     69.06484753	     44.91194924	      0.00000000	      0.00000000	      3.72932595	     -8.15056757	    -11.41178219	     33.20507698	     44.86038336	      0.00000000	      0.00000000
     55.66685714	     -1.60320241	     -4.47846159	      5.99893882	      1.17702650	      0.93183253	      0.48332611	      9.85185732	      1.77668715	    -15.60892106	     17.76427961	     17.76427961	     11.01773865	     -3.78238311	     -5.06722201	     30.41699522	    -12.68318347	      0.00345138	     58.31764803	     58.31764803	      9.15479541	    -18.93625165	     13.75690025	    -10.26612119	      6.04217394	      1.88335699	     20.35652122	    -20.44316799	     -5.25264787	     72.06291897	     44.82661102	      0.00000000	      0.00000000	      3.04967983	     -7.99995627	    -11.39773867	     31.85377030	     44.88548563	      0.00000000	      0.00000000
     55.68028571	     -1.69621278	     -4.37229432	      6.54380635	      1.17567753	      0.93197655	      0.48373984	      9.38678234	      1.79623504	    -15.81885727	     17.27924385	     17.27924385	     11.00268329	     -4.11033042	     -5.59052536	     31.13385848	    -12.38946121	     -0.32138654	     55.55952272	     55.55952272	      9.51825108	    -18.97872746	     14.26994442	    -10.30798365	      5.90143676	      2.24784274	     20.92582105	    -21.15784454	     -5.30428312	     76.49575225	     44.71286830	      0.00000000	      0.00000000	      2.94182432	     -7.73259697	    -11.45770829	     29.90870422	     44.97834301	      0.00000000	      0.00000000
     55.69371429	     -1.75215668	     -4.26067941	      7.06249980	      1.17429951	      0.93212801	      0.48404527	      8.91423172	      1.79611256	    -16.04036867	     16.85668107	     16.85668107	     11.00876952	     -4.40290774	     -6.02314686	     31.63348338	    -12.04049617	     -0.68271970	     52.54572369	     52.54572369	      9.74248478	    -18.95924918	     14.52293924	    -10.39806202	      5.73069921	      2.55638660	     21.87847095	    -21.45925155	     -6.18104426	     80.01077346	     44.67718464	      0.00000000	      0.00000000	      2.79397340	     -7.49806212	    -11.48708564	     28.16396952	     45.09571925	      0.00000000	      0.00000000
     55.70714286	     -1.87545234	     -4.18797760	      7.57629911	      1.17284075	      0.93210917	      0.48417088	      8.56048764	      1.80491161	    -16.28741591	     16.51185140	     16.51185140	     11.16255706	     -4.59537798	     -6.08284560	     32.08729281	    -11.60256961	     -0.91781794	     49.33942918	     49.33942918	      9.86862114	    -18.90913667	     14.72935853	    -10.39942063	      5.61685850	      2.27324574	     23.61474008	    -21.32112873	     -6.43270166	     82.37113630	     44.63039627	      0.00000000	      0.00000000	      2.01364536	     -7.40529115	    -11.47092737	     27.31688966	     45.11568521	      0.00000000	      0.00000000
     55.72057143	     -1.98561157	     -4.06893829	      8.04390023	      1.17134570	      0.93208344	      0.48410951	      8.23671477	      1.74006218	    -16.51759544	     16.26100007	     16.26100007	     11.33578400	     -4.78782528	     -6.15064207	     32.34765818	    -11.01377765	     -1.06417810	     45.92230566	     45.92230566	      9.94167455	    -18.79960355	     14.85908629	    -10.44935772	      5.43664314	      2.10005570	     25.21663573	    -21.26873210	     -6.58255116	     84.65680702	     44.57721196	      0.00000000	      0.00000000	      1.29977491	     -7.29257992	    -11.46284684	     26.63609023	     45.12512604	      0.00000000	      0.00000000
     55.73400000	     -2.16969170	     -4.06253195	      8.50117200	      1.16982725	      0.93174294	      0.48385894	      8.02107259	      1.75387656	    -16.83548555	     16.03091200	     16.03091200	     11.45786828	     -4.84852122	     -6.46748823	     32.58687765	    -10.46605902	     -1.06432198	     42.34909588	     42.34909588	      9.41238288	    -18.57729120	     13.43185473	    -10.47742372	      5.43478968	      2.57455709	     25.95586352	    -21.93582384	     -7.04138319	     88.67396318	     44.51274142	      0.00000000	      0.00000000	      1.08155223	     -7.00208627	    -11.52046031	     25.68774708	     45.22283476	      0.00000000	      0.00000000
     55.74742857	     -2.36498086	     -4.01465488	      8.92971871	      1.16826789	      0.93139045	      0.48342298	      7.85612750	      1.70672640	    -17.08788754	     15.87859517	     15.87859517	     11.66211299	     -5.00193343	     -6.53900118	     32.75967176	     -9.75140387	     -0.80027842	     38.81301299	     38.81301299	      9.29976179	    -18.16190586	     13.26952628	    -10.46521348	      5.34072429	      2.37803368	     27.64446402	    -21.72197003	     -7.29269943	     90.79610569	     44.47301409	      0.00000000	      0.00000000	      0.37153608	     -6.85540329	    -11.50820675	     25.14686984	     45.23391879	      0.00000000	      0.00000000
     55.76085714	     -2.64467616	     -4.29617120	      9.34023660	      1.16671127	      0.93052256	      0.48296850	      7.90794844	      1.97406809	    -17.37883067	     15.87313447	     15.87313447	     11.89249800	     -5.16860235	     -6.64064499	     33.20566237	     -9.36951711	     -0.28205169	     35.65338064	     35.65338064	      9.56950671	    -17.06993231	     13.41361947	    -10.15876125	      5.61627512	      2.69218726	     29.12656238	    -22.07648725	     -7.54714603	     91.70658683	     44.46061538	      0.00000000	      0.00000000	     -0.18820660	     -6.64193243	    -11.51030065	     24.91847657	     45.22810564	      0.00000000	      0.00000000
     55.77428571	     -2.92033957	     -4.21057328	      9.68607170	      1.16518669	      0.93011299	      0.48224213	      7.82876807	      1.84855636	    -17.57748132	     15.73466478	     15.73466478	     12.03739344	     -5.27795016	     -6.67282746	     33.22627128	     -8.65399493	     -0.02054769	     32.17877318	     32.17877318	      9.45131917	    -15.70278430	     13.51582737	    -10.09030042	      5.44423373	      2.58893050	     30.87920517	    -22.09350824	     -7.71441827	     93.49396923	     44.41992525	      0.00000000	      0.00000000	     -0.80017794	     -6.40611004	    -11.50320544	     24.62681101	     45.22260859	      0.00000000	      0.00000000
     55.78771429	     -2.90063372	     -3.96311659	      9.96537868	      1.16419960	      0.93001460	      0.48135952	      7.35298893	      1.58229716	    -17.79339100	     15.60807841	     15.60807841	     12.36331411	     -5.08783074	     -6.78853169	     32.73183411	     -7.88353382	      0.19921426	     28.82390099	     28.82390099	      9.13119410	    -14.17277497	     12.56235711	    -10.42292025	      5.20550634	      2.15316939	     32.22801933	    -21.31335613	     -7.50757913	     97.21304310	     44.31337484	      0.00000000	      0.00000000	     -1.66100311	     -6.37195470	    -11.57490606	     24.37218648	     45.24106597	      0.00000000	      0.00000000
     55.80114286	     -3.04128238	     -4.10868844	     10.23300173	      1.16323271	      0.92934497	      0.48048749	      7.14273736	      1.68483478	    -18.18471867	     15.52901896	     15.52901896	     12.67804028	     -4.73414909	     -6.81935934	     32.56037770	     -7.55836634	      0.46603150	     25.81473714	     25.81473714	      7.73171055	    -12.52462062	      9.02879506	    -10.45515065	      5.32944654	      2.97519820	     32.68887735	    -22.08160039	     -8.16440989	    100.81111064	     44.28294342	      0.00000000	      0.00000000	     -2.10786900	     -6.10205456	    -11.77434204	     24.88857053	     45.34470400	      0.00000000	      0.00000000
     55.81457143	     -3.20184013	     -4.13994419	     10.43181279	      1.16238002	      0.92880167	      0.47951818	      6.92833594	      1.69560953	    -18.28030759	     15.42735853	     15.42735853	     12.88620974	     -4.73992886	     -6.86293808	     32.44819668	     -7.13197664	      0.79420765	     23.45562749	     23.45562749	      7.63059020	    -10.70522371	      9.06960646	    -10.39205739	      5.29379227	      2.98469154	     34.15128748	    -21.78919793	     -8.27750105	    102.02022279	     44.26380189	      0.00000000	      0.00000000	     -2.64706227	     -5.93888922	    -11.75386093	     24.60741217	     45.34465850	      0.00000000	      0.00000000
     55.82800000	     -3.26795856	     -4.20883099	     10.60999612	      1.16191406	      0.92833438	      0.47850322	      6.54520687	      1.77169734	    -18.48527654	     15.24320243	     15.24320243	     13.16956769	     -4.55559543	     -6.90782258	     32.27485015	     -6.86729526	      0.84994775	     21.61219752	     21.61219752	      7.45482573	     -8.79756937	      8.89126460	    -10.40407245	      5.30775318	      2.94929860	     35.44539468	    -21.40764592	     -8.27649289	    103.58313717	     44.23401844	      0.00000000	      0.00000000	     -3.26039317	     -5.80298300	    -11.77842736	     24.49400033	     45.35573383	      0.00000000	      0.00000000
     55.84142857	     -3.48510391	     -4.40965356	     10.74476380	      1.16152213	      0.92751679	      0.47736367	      6.40027420	      1.94214931	    -18.60031297	     15.15895317	     15.15895317	     13.38813944	     -4.48614224	     -6.95893153	     32.39632048	     -6.68319397	      1.13032825	     20.41604154	     20.41604154	      7.17673773	     -7.62367924	      8.97061099	    -10.08776516	      5.44344034	      3.21730325	     36.62513424	    -21.49504569	     -8.41924668	    104.28239758	     44.22622622	      0.00000000	      0.00000000	     -3.71116877	     -5.62216472	    -11.78915478	     24.43200193	     45.35409378	      0.00000000	      0.00000000
     55.85485714	     -3.41103530	     -4.35840790	     10.78202485	      1.16175304	      0.92733118	      0.47618340	      5.72245608	      1.93485454	    -18.71147208	     14.82761148	     14.82761148	     13.65742250	     -4.08301763	     -6.95992311	     31.93618154	     -6.47502380	      0.80154930	     19.40699345	     19.40699345	      6.86661590	     -6.27156761	      8.70615519	    -10.21574155	      5.32509711	      3.22286530	     37.60157417	    -20.92330624	     -8.32707771	    105.72568320	     44.19314763	      0.00000000	      0.00000000	     -4.24841281	     -5.54891381	    -11.84502726	     24.44696661	     45.36739062	      0.00000000	      0.00000000
